<?xml version="1.0" encoding="UTF-8" standalone="no"?>
<!DOCTYPE svg PUBLIC "-//W3C//DTD SVG 1.1//EN"
 "http://www.w3.org/Graphics/SVG/1.1/DTD/svg11.dtd">
<!-- Generated by graphviz version 2.47.1 (20210417.1919)
 -->
<!-- Title: pipeline_dag Pages: 1 -->
<svg width="1262pt" height="1139pt"
 viewBox="0.00 0.00 1261.63 1138.60" xmlns="http://www.w3.org/2000/svg" xmlns:xlink="http://www.w3.org/1999/xlink">
<g id="graph0" class="graph" transform="scale(1 1) rotate(0) translate(4 1134.6)">
<title>pipeline_dag</title>
<polygon fill="white" stroke="transparent" points="-4,4 -4,-1134.6 1257.63,-1134.6 1257.63,4 -4,4"/>
<!-- p0 -->
<g id="node1" class="node">
<title>p0</title>
<ellipse fill="none" stroke="black" cx="215.24" cy="-1112.6" rx="90.98" ry="18"/>
<text text-anchor="middle" x="215.24" y="-1108.9" font-family="Times,serif" font-size="14.00">ANCESTRAL:get_hal</text>
</g>
<!-- p1 -->
<g id="node2" class="node">
<title>p1</title>
<ellipse fill="none" stroke="black" cx="94.24" cy="-1025.6" rx="94.48" ry="18"/>
<text text-anchor="middle" x="94.24" y="-1021.9" font-family="Times,serif" font-size="14.00">ANCESTRAL:hal2maf</text>
</g>
<!-- p0&#45;&gt;p1 -->
<g id="edge1" class="edge">
<title>p0&#45;&gt;p1</title>
<path fill="none" stroke="black" d="M191.62,-1095.01C172.97,-1081.9 146.75,-1063.48 126.21,-1049.06"/>
<polygon fill="black" stroke="black" points="127.99,-1046.03 117.8,-1043.15 123.97,-1051.76 127.99,-1046.03"/>
</g>
<!-- p3 -->
<g id="node5" class="node">
<title>p3</title>
<ellipse fill="none" stroke="black" cx="334.24" cy="-1025.6" rx="128.08" ry="18"/>
<text text-anchor="middle" x="334.24" y="-1021.9" font-family="Times,serif" font-size="14.00">ANCESTRAL:makeRefTgtFasta</text>
</g>
<!-- p0&#45;&gt;p3 -->
<g id="edge4" class="edge">
<title>p0&#45;&gt;p3</title>
<path fill="none" stroke="black" d="M238.47,-1095.01C256.7,-1081.99 282.27,-1063.72 302.41,-1049.34"/>
<polygon fill="black" stroke="black" points="304.56,-1052.1 310.67,-1043.44 300.49,-1046.4 304.56,-1052.1"/>
<text text-anchor="middle" x="296.24" y="-1065.4" font-family="Times,serif" font-size="14.00">HAL</text>
</g>
<!-- p2 -->
<g id="node3" class="node">
<title>p2</title>
<ellipse fill="none" stroke="black" cx="123.24" cy="-884.6" rx="96.38" ry="18"/>
<text text-anchor="middle" x="123.24" y="-880.9" font-family="Times,serif" font-size="14.00">ANCESTRAL:maf2bed</text>
</g>
<!-- p1&#45;&gt;p2 -->
<g id="edge2" class="edge">
<title>p1&#45;&gt;p2</title>
<path fill="none" stroke="black" d="M96.83,-1007.56C100.09,-986.88 106.14,-950.98 113.24,-920.6 113.87,-917.92 114.57,-915.15 115.3,-912.38"/>
<polygon fill="black" stroke="black" points="118.71,-913.18 118.02,-902.6 111.97,-911.3 118.71,-913.18"/>
</g>
<!-- p8 -->
<g id="node4" class="node">
<title>p8</title>
<ellipse fill="none" stroke="black" cx="262.24" cy="-764.6" rx="98.58" ry="18"/>
<text text-anchor="middle" x="262.24" y="-760.9" font-family="Times,serif" font-size="14.00">ANCESTRAL:bed2vbed</text>
</g>
<!-- p2&#45;&gt;p8 -->
<g id="edge3" class="edge">
<title>p2&#45;&gt;p8</title>
<path fill="none" stroke="black" d="M142.86,-866.94C166.73,-846.68 207.2,-812.32 234.32,-789.31"/>
<polygon fill="black" stroke="black" points="236.91,-791.69 242.27,-782.55 232.38,-786.36 236.91,-791.69"/>
</g>
<!-- p9 -->
<g id="node10" class="node">
<title>p9</title>
<ellipse fill="none" stroke="black" cx="287.24" cy="-677.6" rx="100.98" ry="18"/>
<text text-anchor="middle" x="287.24" y="-673.9" font-family="Times,serif" font-size="14.00">ANCESTRAL:bed2ancfa</text>
</g>
<!-- p8&#45;&gt;p9 -->
<g id="edge11" class="edge">
<title>p8&#45;&gt;p9</title>
<path fill="none" stroke="black" d="M267.3,-746.4C270.76,-734.65 275.41,-718.84 279.35,-705.44"/>
<polygon fill="black" stroke="black" points="282.73,-706.36 282.19,-695.78 276.01,-704.38 282.73,-706.36"/>
</g>
<!-- p6 -->
<g id="node6" class="node">
<title>p6</title>
<ellipse fill="none" stroke="black" cx="263.24" cy="-938.6" rx="96.68" ry="18"/>
<text text-anchor="middle" x="263.24" y="-934.9" font-family="Times,serif" font-size="14.00">ANCESTRAL:splitfasta</text>
</g>
<!-- p3&#45;&gt;p6 -->
<g id="edge5" class="edge">
<title>p3&#45;&gt;p6</title>
<path fill="none" stroke="black" d="M290.49,-1008.57C282.27,-1003.67 274.58,-997.44 269.24,-989.6 264.72,-982.97 262.67,-974.67 261.9,-966.74"/>
<polygon fill="black" stroke="black" points="265.4,-966.58 261.53,-956.72 258.4,-966.84 265.4,-966.58"/>
<text text-anchor="middle" x="289.74" y="-978.4" font-family="Times,serif" font-size="14.00">reffasta</text>
</g>
<!-- p3&#45;&gt;p6 -->
<g id="edge7" class="edge">
<title>p3&#45;&gt;p6</title>
<path fill="none" stroke="black" d="M328.31,-1007.21C324.27,-997 318.2,-984.26 310.24,-974.6 306.68,-970.28 302.49,-966.2 298.09,-962.46"/>
<polygon fill="black" stroke="black" points="300.06,-959.56 290.04,-956.11 295.72,-965.05 300.06,-959.56"/>
<text text-anchor="middle" x="335.24" y="-978.4" font-family="Times,serif" font-size="14.00">reffai</text>
</g>
<!-- p5 -->
<g id="node7" class="node">
<title>p5</title>
<ellipse fill="black" stroke="black" cx="124.24" cy="-938.6" rx="1.8" ry="1.8"/>
</g>
<!-- p3&#45;&gt;p5 -->
<g id="edge6" class="edge">
<title>p3&#45;&gt;p5</title>
<path fill="none" stroke="black" d="M252.89,-1011.59C229.81,-1006.35 205.04,-999.2 183.24,-989.6 159.55,-979.16 153.29,-975.16 135.24,-956.6 133.17,-954.47 131.27,-951.89 129.65,-949.4"/>
<polygon fill="black" stroke="black" points="132.67,-947.62 124.72,-940.62 126.56,-951.05 132.67,-947.62"/>
</g>
<!-- p4 -->
<g id="node8" class="node">
<title>p4</title>
<ellipse fill="black" stroke="black" cx="146.24" cy="-938.6" rx="1.8" ry="1.8"/>
</g>
<!-- p3&#45;&gt;p4 -->
<g id="edge8" class="edge">
<title>p3&#45;&gt;p4</title>
<path fill="none" stroke="black" d="M268.59,-1010.02C232.83,-999.62 189.45,-982.73 157.24,-956.6 154.93,-954.73 152.95,-952.24 151.33,-949.75"/>
<polygon fill="black" stroke="black" points="154.35,-947.97 146.66,-940.68 148.13,-951.17 154.35,-947.97"/>
</g>
<!-- p21 -->
<g id="node22" class="node">
<title>p21</title>
<ellipse fill="none" stroke="black" cx="496.24" cy="-677.6" rx="79.89" ry="18"/>
<text text-anchor="middle" x="496.24" y="-673.9" font-family="Times,serif" font-size="14.00">PREPROCESS:vep</text>
</g>
<!-- p3&#45;&gt;p21 -->
<g id="edge24" class="edge">
<title>p3&#45;&gt;p21</title>
<path fill="none" stroke="black" d="M344.61,-1007.55C352.38,-994.13 362.74,-974.72 369.24,-956.6 407.63,-849.57 380.25,-803.98 449.24,-713.6 452.64,-709.15 456.74,-705 461.1,-701.22"/>
<polygon fill="black" stroke="black" points="463.46,-703.81 469.1,-694.84 459.1,-698.34 463.46,-703.81"/>
<text text-anchor="middle" x="417.74" y="-837.4" font-family="Times,serif" font-size="14.00">reffasta</text>
</g>
<!-- p3&#45;&gt;p21 -->
<g id="edge25" class="edge">
<title>p3&#45;&gt;p21</title>
<path fill="none" stroke="black" d="M355.28,-1007.64C361.2,-1002.25 367.35,-996.02 372.24,-989.6 382.24,-976.48 381.83,-971.34 389.24,-956.6 413.26,-908.83 422.32,-898.22 442.24,-848.6 462.03,-799.33 479.53,-739.81 488.94,-705.86"/>
<polygon fill="black" stroke="black" points="492.43,-706.35 491.7,-695.78 485.68,-704.5 492.43,-706.35"/>
<text text-anchor="middle" x="463.24" y="-837.4" font-family="Times,serif" font-size="14.00">reffai</text>
</g>
<!-- p43 -->
<g id="node41" class="node">
<title>p43</title>
<ellipse fill="none" stroke="black" cx="923.24" cy="-277.6" rx="48.19" ry="18"/>
<text text-anchor="middle" x="923.24" y="-273.9" font-family="Times,serif" font-size="14.00">SDM:sdm</text>
</g>
<!-- p3&#45;&gt;p43 -->
<g id="edge63" class="edge">
<title>p3&#45;&gt;p43</title>
<path fill="none" stroke="black" d="M459.48,-1021.78C659.86,-1015.58 1030.24,-996.43 1030.24,-939.6 1030.24,-939.6 1030.24,-939.6 1030.24,-676.6 1030.24,-654.37 1026.41,-648.3 1031.24,-626.6 1033.14,-618.05 1037.42,-617.16 1039.24,-608.6 1040.63,-602.08 1041.07,-600.01 1039.24,-593.6 1033.93,-574.98 1025.46,-573.63 1016.24,-556.6 975.65,-481.57 958.43,-464.69 935.24,-382.6 928.09,-357.28 925.19,-327.34 924.02,-306.1"/>
<polygon fill="black" stroke="black" points="927.5,-305.69 923.55,-295.86 920.51,-306.01 927.5,-305.69"/>
<text text-anchor="middle" x="1051.74" y="-630.4" font-family="Times,serif" font-size="14.00">reffasta</text>
</g>
<!-- p3&#45;&gt;p43 -->
<g id="edge64" class="edge">
<title>p3&#45;&gt;p43</title>
<path fill="none" stroke="black" d="M461.45,-1023.11C677.8,-1018.85 1094.24,-1002.5 1094.24,-939.6 1094.24,-939.6 1094.24,-939.6 1094.24,-407.1 1094.24,-345.13 1021.58,-309.35 970.99,-291.95"/>
<polygon fill="black" stroke="black" points="971.79,-288.52 961.19,-288.71 969.59,-295.17 971.79,-288.52"/>
<text text-anchor="middle" x="1109.24" y="-630.4" font-family="Times,serif" font-size="14.00">reffai</text>
</g>
<!-- p7 -->
<g id="node9" class="node">
<title>p7</title>
<ellipse fill="none" stroke="black" cx="262.24" cy="-841.1" rx="3.5" ry="3.5"/>
<text text-anchor="middle" x="241.74" y="-848.4" font-family="Times,serif" font-size="14.00">flatten</text>
</g>
<!-- p6&#45;&gt;p7 -->
<g id="edge9" class="edge">
<title>p6&#45;&gt;p7</title>
<path fill="none" stroke="black" d="M263.06,-920.53C262.87,-901.73 262.55,-871.94 262.38,-855"/>
<polygon fill="black" stroke="black" points="265.87,-854.58 262.27,-844.62 258.87,-854.66 265.87,-854.58"/>
</g>
<!-- p7&#45;&gt;p8 -->
<g id="edge10" class="edge">
<title>p7&#45;&gt;p8</title>
<path fill="none" stroke="black" d="M262.24,-837.27C262.24,-829.96 262.24,-809.84 262.24,-792.77"/>
<polygon fill="black" stroke="black" points="265.74,-792.67 262.24,-782.67 258.74,-792.67 265.74,-792.67"/>
</g>
<!-- p10 -->
<g id="node11" class="node">
<title>p10</title>
<ellipse fill="none" stroke="black" cx="296.24" cy="-601.1" rx="3.5" ry="3.5"/>
<text text-anchor="middle" x="274.24" y="-608.4" font-family="Times,serif" font-size="14.00">collect</text>
</g>
<!-- p9&#45;&gt;p10 -->
<g id="edge12" class="edge">
<title>p9&#45;&gt;p10</title>
<path fill="none" stroke="black" d="M289.33,-659.32C290.96,-645.79 293.2,-627.28 294.68,-615.02"/>
<polygon fill="black" stroke="black" points="298.17,-615.32 295.89,-604.97 291.22,-614.48 298.17,-615.32"/>
</g>
<!-- p11 -->
<g id="node12" class="node">
<title>p11</title>
<ellipse fill="none" stroke="black" cx="298.24" cy="-538.6" rx="109.68" ry="18"/>
<text text-anchor="middle" x="298.24" y="-534.9" font-family="Times,serif" font-size="14.00">ANCESTRAL:collectAncfa</text>
</g>
<!-- p10&#45;&gt;p11 -->
<g id="edge13" class="edge">
<title>p10&#45;&gt;p11</title>
<path fill="none" stroke="black" d="M296.33,-597.5C296.5,-592.15 296.93,-579.37 297.33,-567.18"/>
<polygon fill="black" stroke="black" points="300.84,-566.93 297.67,-556.82 293.84,-566.69 300.84,-566.93"/>
</g>
<!-- p27 -->
<g id="node13" class="node">
<title>p27</title>
<ellipse fill="none" stroke="black" cx="245.24" cy="-451.6" rx="85.29" ry="18"/>
<text text-anchor="middle" x="245.24" y="-447.9" font-family="Times,serif" font-size="14.00">MUTYPER:mutyper</text>
</g>
<!-- p11&#45;&gt;p27 -->
<g id="edge14" class="edge">
<title>p11&#45;&gt;p27</title>
<path fill="none" stroke="black" d="M263.94,-521.37C256.88,-516.37 250.36,-510.15 246.24,-502.6 242.53,-495.79 241.28,-487.64 241.24,-479.91"/>
<polygon fill="black" stroke="black" points="244.74,-479.99 241.8,-469.81 237.75,-479.6 244.74,-479.99"/>
<text text-anchor="middle" x="261.24" y="-491.4" font-family="Times,serif" font-size="14.00">ancfa</text>
</g>
<!-- p11&#45;&gt;p27 -->
<g id="edge15" class="edge">
<title>p11&#45;&gt;p27</title>
<path fill="none" stroke="black" d="M231.07,-524.21C220.51,-519.15 210.9,-512.18 204.24,-502.6 197.84,-493.38 202.69,-483.73 210.99,-475.4"/>
<polygon fill="black" stroke="black" points="213.37,-477.97 218.59,-468.75 208.76,-472.7 213.37,-477.97"/>
<text text-anchor="middle" x="221.24" y="-491.4" font-family="Times,serif" font-size="14.00">ancfai</text>
</g>
<!-- p35 -->
<g id="node36" class="node">
<title>p35</title>
<ellipse fill="none" stroke="black" cx="455.24" cy="-451.6" rx="93.68" ry="18"/>
<text text-anchor="middle" x="455.24" y="-447.9" font-family="Times,serif" font-size="14.00">RELATE:relate_format</text>
</g>
<!-- p11&#45;&gt;p35 -->
<g id="edge46" class="edge">
<title>p11&#45;&gt;p35</title>
<path fill="none" stroke="black" d="M293.69,-520.49C291.95,-509.89 291.88,-496.61 299.24,-487.6 304.62,-481.02 340.56,-472.72 376.59,-465.86"/>
<polygon fill="black" stroke="black" points="377.54,-469.24 386.73,-463.96 376.26,-462.36 377.54,-469.24"/>
<text text-anchor="middle" x="314.24" y="-491.4" font-family="Times,serif" font-size="14.00">ancfa</text>
</g>
<!-- p11&#45;&gt;p35 -->
<g id="edge47" class="edge">
<title>p11&#45;&gt;p35</title>
<path fill="none" stroke="black" d="M313.32,-520.33C323.43,-509.65 337.53,-496.36 352.24,-487.6 364.25,-480.44 377.93,-474.5 391.31,-469.67"/>
<polygon fill="black" stroke="black" points="392.65,-472.91 400.97,-466.34 390.37,-466.29 392.65,-472.91"/>
<text text-anchor="middle" x="369.24" y="-491.4" font-family="Times,serif" font-size="14.00">ancfai</text>
</g>
<!-- p38 -->
<g id="node39" class="node">
<title>p38</title>
<ellipse fill="none" stroke="black" cx="658.24" cy="-451.6" rx="91.78" ry="18"/>
<text text-anchor="middle" x="658.24" y="-447.9" font-family="Times,serif" font-size="14.00">SDM:makeAnnotation</text>
</g>
<!-- p11&#45;&gt;p38 -->
<g id="edge51" class="edge">
<title>p11&#45;&gt;p38</title>
<path fill="none" stroke="black" d="M383.88,-527.26C457.12,-518.24 552.03,-506.08 560.24,-502.6 570.15,-498.4 570.03,-493.16 579.24,-487.6 588.59,-481.97 599,-476.71 609.11,-472.07"/>
<polygon fill="black" stroke="black" points="610.57,-475.25 618.29,-467.99 607.73,-468.85 610.57,-475.25"/>
<text text-anchor="middle" x="594.24" y="-491.4" font-family="Times,serif" font-size="14.00">ancfa</text>
</g>
<!-- p11&#45;&gt;p38 -->
<g id="edge52" class="edge">
<title>p11&#45;&gt;p38</title>
<path fill="none" stroke="black" d="M383.83,-527.3C430.08,-520.88 481.97,-512.07 503.24,-502.6 513.07,-498.23 512.6,-492.38 522.24,-487.6 540.56,-478.52 561.46,-471.64 581.29,-466.48"/>
<polygon fill="black" stroke="black" points="582.38,-469.82 591.24,-464.02 580.69,-463.03 582.38,-469.82"/>
<text text-anchor="middle" x="539.24" y="-491.4" font-family="Times,serif" font-size="14.00">ancfai</text>
</g>
<!-- p28 -->
<g id="node29" class="node">
<title>p28</title>
<ellipse fill="none" stroke="black" cx="245.24" cy="-364.6" rx="3.5" ry="3.5"/>
<text text-anchor="middle" x="209.74" y="-371.9" font-family="Times,serif" font-size="14.00">groupTuple</text>
</g>
<!-- p27&#45;&gt;p28 -->
<g id="edge36" class="edge">
<title>p27&#45;&gt;p28</title>
<path fill="none" stroke="black" d="M245.24,-433.4C245.24,-417.21 245.24,-393.31 245.24,-378.64"/>
<polygon fill="black" stroke="black" points="248.74,-378.24 245.24,-368.24 241.74,-378.24 248.74,-378.24"/>
</g>
<!-- p12 -->
<g id="node14" class="node">
<title>p12</title>
<ellipse fill="black" stroke="black" cx="1096.24" cy="-1112.6" rx="3.6" ry="3.6"/>
</g>
<!-- p14 -->
<g id="node15" class="node">
<title>p14</title>
<ellipse fill="none" stroke="black" cx="1126.24" cy="-1025.6" rx="127.28" ry="18"/>
<text text-anchor="middle" x="1126.24" y="-1021.9" font-family="Times,serif" font-size="14.00">PREPROCESS:chromosomeList</text>
</g>
<!-- p12&#45;&gt;p14 -->
<g id="edge16" class="edge">
<title>p12&#45;&gt;p14</title>
<path fill="none" stroke="black" d="M1095.67,-1108.77C1094.22,-1100.96 1090.95,-1078.53 1097.24,-1061.6 1098.49,-1058.24 1100.21,-1054.98 1102.19,-1051.88"/>
<polygon fill="black" stroke="black" points="1105.16,-1053.75 1108.29,-1043.63 1099.53,-1049.58 1105.16,-1053.75"/>
<text text-anchor="middle" x="1115.74" y="-1065.4" font-family="Times,serif" font-size="14.00">ch_vcf</text>
</g>
<!-- p15 -->
<g id="node17" class="node">
<title>p15</title>
<ellipse fill="none" stroke="black" cx="1126.24" cy="-938.6" rx="3.5" ry="3.5"/>
<text text-anchor="middle" x="1100.24" y="-945.9" font-family="Times,serif" font-size="14.00">splitCsv</text>
</g>
<!-- p14&#45;&gt;p15 -->
<g id="edge18" class="edge">
<title>p14&#45;&gt;p15</title>
<path fill="none" stroke="black" d="M1126.24,-1007.4C1126.24,-991.21 1126.24,-967.31 1126.24,-952.64"/>
<polygon fill="black" stroke="black" points="1129.74,-952.24 1126.24,-942.24 1122.74,-952.24 1129.74,-952.24"/>
</g>
<!-- p13 -->
<g id="node16" class="node">
<title>p13</title>
<ellipse fill="black" stroke="black" cx="1156.24" cy="-1112.6" rx="3.6" ry="3.6"/>
</g>
<!-- p13&#45;&gt;p14 -->
<g id="edge17" class="edge">
<title>p13&#45;&gt;p14</title>
<path fill="none" stroke="black" d="M1155.24,-1108.77C1152.22,-1100.21 1142.93,-1073.88 1135.67,-1053.3"/>
<polygon fill="black" stroke="black" points="1138.93,-1052.03 1132.3,-1043.77 1132.33,-1054.36 1138.93,-1052.03"/>
<text text-anchor="middle" x="1159.24" y="-1065.4" font-family="Times,serif" font-size="14.00">ch_tbi</text>
</g>
<!-- p16 -->
<g id="node18" class="node">
<title>p16</title>
<ellipse fill="none" stroke="black" cx="893.24" cy="-841.1" rx="3.5" ry="3.5"/>
<text text-anchor="middle" x="877.24" y="-848.4" font-family="Times,serif" font-size="14.00">map</text>
</g>
<!-- p15&#45;&gt;p16 -->
<g id="edge19" class="edge">
<title>p15&#45;&gt;p16</title>
<path fill="none" stroke="black" d="M1123.3,-936.39C1100.33,-926.98 949.64,-865.21 905.42,-847.09"/>
<polygon fill="black" stroke="black" points="906.7,-843.83 896.12,-843.28 904.05,-850.31 906.7,-843.83"/>
</g>
<!-- p19 -->
<g id="node19" class="node">
<title>p19</title>
<ellipse fill="none" stroke="black" cx="637.24" cy="-764.6" rx="96.68" ry="18"/>
<text text-anchor="middle" x="637.24" y="-760.9" font-family="Times,serif" font-size="14.00">PREPROCESS:shapeit4</text>
</g>
<!-- p16&#45;&gt;p19 -->
<g id="edge20" class="edge">
<title>p16&#45;&gt;p19</title>
<path fill="none" stroke="black" d="M889.88,-839.73C866.75,-837.17 731.44,-821.99 714.24,-815.6 696.92,-809.16 679.5,-798.3 665.61,-788.34"/>
<polygon fill="black" stroke="black" points="667.58,-785.44 657.46,-782.3 663.41,-791.07 667.58,-785.44"/>
<text text-anchor="middle" x="762.74" y="-804.4" font-family="Times,serif" font-size="14.00">chromosomes_ch</text>
</g>
<!-- p26 -->
<g id="node28" class="node">
<title>p26</title>
<ellipse fill="none" stroke="black" cx="142.24" cy="-764.6" rx="3.5" ry="3.5"/>
<text text-anchor="middle" x="114.74" y="-771.9" font-family="Times,serif" font-size="14.00">combine</text>
</g>
<!-- p16&#45;&gt;p26 -->
<g id="edge34" class="edge">
<title>p16&#45;&gt;p26</title>
<path fill="none" stroke="black" d="M890,-839.73C880.51,-838.67 851.98,-835.54 828.24,-833.6 703.07,-823.35 667.7,-847.55 546.24,-815.6 531.44,-811.71 530.07,-804.39 515.24,-800.6 437.42,-780.71 224.62,-821.32 154.24,-782.6 151.78,-781.25 149.71,-779.15 148.02,-776.89"/>
<polygon fill="black" stroke="black" points="151.07,-775.18 143.17,-768.12 144.95,-778.56 151.07,-775.18"/>
<text text-anchor="middle" x="594.74" y="-804.4" font-family="Times,serif" font-size="14.00">chromosomes_ch</text>
</g>
<!-- p34 -->
<g id="node35" class="node">
<title>p34</title>
<ellipse fill="none" stroke="black" cx="815.24" cy="-764.6" rx="3.5" ry="3.5"/>
<text text-anchor="middle" x="787.74" y="-771.9" font-family="Times,serif" font-size="14.00">combine</text>
</g>
<!-- p16&#45;&gt;p34 -->
<g id="edge42" class="edge">
<title>p16&#45;&gt;p34</title>
<path fill="none" stroke="black" d="M892.4,-837.7C889.98,-831.11 882.49,-812.43 871.24,-800.6 858.55,-787.25 839.73,-776.87 827.48,-770.99"/>
<polygon fill="black" stroke="black" points="828.71,-767.71 818.15,-766.79 825.83,-774.09 828.71,-767.71"/>
<text text-anchor="middle" x="929.74" y="-804.4" font-family="Times,serif" font-size="14.00">chromosomes_ch</text>
</g>
<!-- p42 -->
<g id="node44" class="node">
<title>p42</title>
<ellipse fill="none" stroke="black" cx="947.24" cy="-364.6" rx="3.5" ry="3.5"/>
<text text-anchor="middle" x="919.74" y="-371.9" font-family="Times,serif" font-size="14.00">combine</text>
</g>
<!-- p16&#45;&gt;p42 -->
<g id="edge61" class="edge">
<title>p16&#45;&gt;p42</title>
<path fill="none" stroke="black" d="M896.76,-840.45C910.5,-841.58 960.87,-843.64 982.24,-815.6 986.28,-810.3 982.93,-807.23 982.24,-800.6 973.31,-713.89 951.18,-695.31 942.24,-608.6 933.23,-521.12 942.2,-415.03 945.85,-378.6"/>
<polygon fill="black" stroke="black" points="949.35,-378.81 946.91,-368.5 942.39,-378.08 949.35,-378.81"/>
<text text-anchor="middle" x="990.74" y="-597.4" font-family="Times,serif" font-size="14.00">chromosomes_ch</text>
</g>
<!-- p19&#45;&gt;p21 -->
<g id="edge23" class="edge">
<title>p19&#45;&gt;p21</title>
<path fill="none" stroke="black" d="M615.07,-747.02C601.09,-736.87 582.49,-723.9 565.24,-713.6 556.59,-708.44 547.09,-703.29 537.97,-698.6"/>
<polygon fill="black" stroke="black" points="539.54,-695.47 529.03,-694.08 536.38,-701.72 539.54,-695.47"/>
</g>
<!-- p17 -->
<g id="node20" class="node">
<title>p17</title>
<ellipse fill="black" stroke="black" cx="517.24" cy="-841.1" rx="3.6" ry="3.6"/>
</g>
<!-- p17&#45;&gt;p19 -->
<g id="edge21" class="edge">
<title>p17&#45;&gt;p19</title>
<path fill="none" stroke="black" d="M514.78,-838.14C507.51,-832.1 487.21,-813.44 497.24,-800.6 504.83,-790.88 527.28,-783.46 552.04,-778.01"/>
<polygon fill="black" stroke="black" points="552.92,-781.4 562,-775.94 551.49,-774.55 552.92,-781.4"/>
<text text-anchor="middle" x="506.24" y="-804.4" font-family="Times,serif" font-size="14.00">vcf</text>
</g>
<!-- p18 -->
<g id="node21" class="node">
<title>p18</title>
<ellipse fill="black" stroke="black" cx="657.24" cy="-841.1" rx="3.6" ry="3.6"/>
</g>
<!-- p18&#45;&gt;p19 -->
<g id="edge22" class="edge">
<title>p18&#45;&gt;p19</title>
<path fill="none" stroke="black" d="M656.48,-837.27C654.52,-829.96 649.12,-809.84 644.53,-792.77"/>
<polygon fill="black" stroke="black" points="647.8,-791.42 641.83,-782.67 641.04,-793.24 647.8,-791.42"/>
<text text-anchor="middle" x="657.74" y="-804.4" font-family="Times,serif" font-size="14.00">tbi</text>
</g>
<!-- p22 -->
<g id="node24" class="node">
<title>p22</title>
<ellipse fill="none" stroke="black" cx="553.24" cy="-601.1" rx="3.5" ry="3.5"/>
<text text-anchor="middle" x="531.24" y="-608.4" font-family="Times,serif" font-size="14.00">collect</text>
</g>
<!-- p21&#45;&gt;p22 -->
<g id="edge27" class="edge">
<title>p21&#45;&gt;p22</title>
<path fill="none" stroke="black" d="M514.7,-660.04C520.36,-654.48 526.37,-648.05 531.24,-641.6 537.8,-632.91 543.71,-622.05 547.75,-613.91"/>
<polygon fill="black" stroke="black" points="550.97,-615.28 552.08,-604.75 544.64,-612.29 550.97,-615.28"/>
<text text-anchor="middle" x="559.74" y="-630.4" font-family="Times,serif" font-size="14.00">vcf_ch</text>
</g>
<!-- p23 -->
<g id="node25" class="node">
<title>p23</title>
<ellipse fill="none" stroke="black" cx="512.24" cy="-601.1" rx="3.5" ry="3.5"/>
<text text-anchor="middle" x="490.24" y="-608.4" font-family="Times,serif" font-size="14.00">collect</text>
</g>
<!-- p21&#45;&gt;p23 -->
<g id="edge28" class="edge">
<title>p21&#45;&gt;p23</title>
<path fill="none" stroke="black" d="M494.4,-659.6C493.87,-649.77 494.12,-637.27 497.24,-626.6 498.71,-621.57 501.5,-616.55 504.28,-612.37"/>
<polygon fill="black" stroke="black" points="507.2,-614.3 510.4,-604.2 501.6,-610.1 507.2,-614.3"/>
<text text-anchor="middle" x="514.24" y="-630.4" font-family="Times,serif" font-size="14.00">tbi_ch</text>
</g>
<!-- p20 -->
<g id="node23" class="node">
<title>p20</title>
<ellipse fill="black" stroke="black" cx="496.24" cy="-764.6" rx="3.6" ry="3.6"/>
</g>
<!-- p20&#45;&gt;p21 -->
<g id="edge26" class="edge">
<title>p20&#45;&gt;p21</title>
<path fill="none" stroke="black" d="M496.24,-760.77C496.24,-752.28 496.24,-726.35 496.24,-705.87"/>
<polygon fill="black" stroke="black" points="499.74,-705.77 496.24,-695.77 492.74,-705.77 499.74,-705.77"/>
<text text-anchor="middle" x="528.74" y="-717.4" font-family="Times,serif" font-size="14.00">input_annot</text>
</g>
<!-- p24 -->
<g id="node26" class="node">
<title>p24</title>
<ellipse fill="none" stroke="black" cx="553.24" cy="-538.6" rx="98.28" ry="18"/>
<text text-anchor="middle" x="553.24" y="-534.9" font-family="Times,serif" font-size="14.00">PREPROCESS:combine</text>
</g>
<!-- p22&#45;&gt;p24 -->
<g id="edge29" class="edge">
<title>p22&#45;&gt;p24</title>
<path fill="none" stroke="black" d="M553.24,-597.5C553.24,-592.15 553.24,-579.37 553.24,-567.18"/>
<polygon fill="black" stroke="black" points="556.74,-566.82 553.24,-556.82 549.74,-566.82 556.74,-566.82"/>
</g>
<!-- p23&#45;&gt;p24 -->
<g id="edge30" class="edge">
<title>p23&#45;&gt;p24</title>
<path fill="none" stroke="black" d="M513.8,-597.8C517.52,-592.31 527.27,-577.92 536.15,-564.82"/>
<polygon fill="black" stroke="black" points="539.07,-566.75 541.79,-556.51 533.28,-562.82 539.07,-566.75"/>
</g>
<!-- p24&#45;&gt;p27 -->
<g id="edge31" class="edge">
<title>p24&#45;&gt;p27</title>
<path fill="none" stroke="black" d="M483.94,-525.74C459.72,-520.31 432.74,-512.76 409.24,-502.6 398.04,-497.76 397.43,-492.47 386.24,-487.6 365.08,-478.39 341.04,-471.29 318.88,-465.97"/>
<polygon fill="black" stroke="black" points="319.37,-462.5 308.84,-463.65 317.8,-469.32 319.37,-462.5"/>
<text text-anchor="middle" x="418.24" y="-491.4" font-family="Times,serif" font-size="14.00">vcf</text>
</g>
<!-- p24&#45;&gt;p27 -->
<g id="edge32" class="edge">
<title>p24&#45;&gt;p27</title>
<path fill="none" stroke="black" d="M508.38,-522.44C492.11,-516.63 473.7,-509.69 457.24,-502.6 443.55,-496.7 441.36,-492.39 427.24,-487.6 407.61,-480.94 361.62,-472.12 320.78,-465"/>
<polygon fill="black" stroke="black" points="321.26,-461.53 310.81,-463.27 320.06,-468.42 321.26,-461.53"/>
<text text-anchor="middle" x="464.74" y="-491.4" font-family="Times,serif" font-size="14.00">tbi</text>
</g>
<!-- p24&#45;&gt;p35 -->
<g id="edge44" class="edge">
<title>p24&#45;&gt;p35</title>
<path fill="none" stroke="black" d="M592.63,-522.1C609.8,-513.05 623.85,-500.82 613.24,-487.6 607.81,-480.84 570.87,-472.46 534.07,-465.59"/>
<polygon fill="black" stroke="black" points="534.7,-462.15 524.23,-463.79 533.44,-469.03 534.7,-462.15"/>
<text text-anchor="middle" x="626.24" y="-491.4" font-family="Times,serif" font-size="14.00">vcf</text>
</g>
<!-- p24&#45;&gt;p35 -->
<g id="edge45" class="edge">
<title>p24&#45;&gt;p35</title>
<path fill="none" stroke="black" d="M516.42,-521.82C506.61,-516.58 496.47,-510.12 488.24,-502.6 480.8,-495.8 474.26,-486.98 469.01,-478.64"/>
<polygon fill="black" stroke="black" points="471.95,-476.73 463.84,-469.91 465.92,-480.3 471.95,-476.73"/>
<text text-anchor="middle" x="495.74" y="-491.4" font-family="Times,serif" font-size="14.00">tbi</text>
</g>
<!-- p24&#45;&gt;p38 -->
<g id="edge50" class="edge">
<title>p24&#45;&gt;p38</title>
<path fill="none" stroke="black" d="M607.41,-523.41C619.04,-518.36 630.46,-511.59 639.24,-502.6 645.42,-496.27 649.64,-487.73 652.49,-479.5"/>
<polygon fill="black" stroke="black" points="655.88,-480.36 655.33,-469.78 649.16,-478.39 655.88,-480.36"/>
<text text-anchor="middle" x="658.24" y="-491.4" font-family="Times,serif" font-size="14.00">vcf</text>
</g>
<!-- p39 -->
<g id="node40" class="node">
<title>p39</title>
<ellipse fill="none" stroke="black" cx="794.24" cy="-364.6" rx="75.29" ry="18"/>
<text text-anchor="middle" x="794.24" y="-360.9" font-family="Times,serif" font-size="14.00">SDM:annotateVcf</text>
</g>
<!-- p24&#45;&gt;p39 -->
<g id="edge55" class="edge">
<title>p24&#45;&gt;p39</title>
<path fill="none" stroke="black" d="M635.44,-528.74C677.64,-520.12 726.85,-503.11 759.24,-469.6 779.36,-448.79 787.92,-416.04 791.56,-392.87"/>
<polygon fill="black" stroke="black" points="795.07,-393.04 792.95,-382.66 788.14,-392.1 795.07,-393.04"/>
<text text-anchor="middle" x="790.24" y="-447.9" font-family="Times,serif" font-size="14.00">vcf</text>
</g>
<!-- p24&#45;&gt;p39 -->
<g id="edge56" class="edge">
<title>p24&#45;&gt;p39</title>
<path fill="none" stroke="black" d="M632.46,-527.88C698.77,-517.76 785.34,-499.18 803.24,-469.6 817.32,-446.34 811.8,-414.62 804.83,-392.35"/>
<polygon fill="black" stroke="black" points="808.13,-391.18 801.58,-382.85 801.5,-393.44 808.13,-391.18"/>
<text text-anchor="middle" x="819.74" y="-447.9" font-family="Times,serif" font-size="14.00">tbi</text>
</g>
<!-- p25 -->
<g id="node27" class="node">
<title>p25</title>
<ellipse fill="black" stroke="black" cx="142.24" cy="-841.1" rx="3.6" ry="3.6"/>
</g>
<!-- p25&#45;&gt;p26 -->
<g id="edge33" class="edge">
<title>p25&#45;&gt;p26</title>
<path fill="none" stroke="black" d="M142.24,-837.27C142.24,-827.69 142.24,-796.07 142.24,-778.2"/>
<polygon fill="black" stroke="black" points="145.74,-778.12 142.24,-768.12 138.74,-778.12 145.74,-778.12"/>
</g>
<!-- p26&#45;&gt;p27 -->
<g id="edge35" class="edge">
<title>p26&#45;&gt;p27</title>
<path fill="none" stroke="black" d="M142.46,-760.96C143.29,-750.52 146.24,-711.1 146.24,-678.6 146.24,-678.6 146.24,-678.6 146.24,-537.6 146.24,-507.91 172.18,-486.35 197.51,-472.36"/>
<polygon fill="black" stroke="black" points="199.15,-475.46 206.4,-467.73 195.91,-469.25 199.15,-475.46"/>
<text text-anchor="middle" x="183.24" y="-597.4" font-family="Times,serif" font-size="14.00">combined_ch</text>
</g>
<!-- p29 -->
<g id="node30" class="node">
<title>p29</title>
<ellipse fill="none" stroke="black" cx="245.24" cy="-277.6" rx="103.18" ry="18"/>
<text text-anchor="middle" x="245.24" y="-273.9" font-family="Times,serif" font-size="14.00">MUTYPER:group_results</text>
</g>
<!-- p28&#45;&gt;p29 -->
<g id="edge37" class="edge">
<title>p28&#45;&gt;p29</title>
<path fill="none" stroke="black" d="M245.24,-360.77C245.24,-352.28 245.24,-326.35 245.24,-305.87"/>
<polygon fill="black" stroke="black" points="248.74,-305.77 245.24,-295.77 241.74,-305.77 248.74,-305.77"/>
</g>
<!-- p30 -->
<g id="node31" class="node">
<title>p30</title>
<ellipse fill="none" stroke="black" cx="245.24" cy="-204.6" rx="96.68" ry="18"/>
<text text-anchor="middle" x="245.24" y="-200.9" font-family="Times,serif" font-size="14.00">MUTYPER:plot_results</text>
</g>
<!-- p29&#45;&gt;p30 -->
<g id="edge38" class="edge">
<title>p29&#45;&gt;p30</title>
<path fill="none" stroke="black" d="M245.24,-259.41C245.24,-251.39 245.24,-241.65 245.24,-232.67"/>
<polygon fill="black" stroke="black" points="248.74,-232.63 245.24,-222.63 241.74,-232.63 248.74,-232.63"/>
</g>
<!-- p31 -->
<g id="node32" class="node">
<title>p31</title>
<ellipse fill="black" stroke="black" cx="245.24" cy="-131.6" rx="1.8" ry="1.8"/>
</g>
<!-- p30&#45;&gt;p31 -->
<g id="edge39" class="edge">
<title>p30&#45;&gt;p31</title>
<path fill="none" stroke="black" d="M245.24,-186.41C245.24,-173.17 245.24,-155.25 245.24,-143.81"/>
<polygon fill="black" stroke="black" points="248.74,-143.43 245.24,-133.43 241.74,-143.43 248.74,-143.43"/>
</g>
<!-- p32 -->
<g id="node33" class="node">
<title>p32</title>
<ellipse fill="black" stroke="black" cx="815.24" cy="-938.6" rx="3.6" ry="3.6"/>
<text text-anchor="middle" x="761.64" y="-946" font-family="Times,serif" font-size="14.00">Channel.fromPath</text>
</g>
<!-- p33 -->
<g id="node34" class="node">
<title>p33</title>
<ellipse fill="none" stroke="black" cx="815.24" cy="-841.1" rx="3.5" ry="3.5"/>
<text text-anchor="middle" x="799.24" y="-848.4" font-family="Times,serif" font-size="14.00">map</text>
</g>
<!-- p32&#45;&gt;p33 -->
<g id="edge40" class="edge">
<title>p32&#45;&gt;p33</title>
<path fill="none" stroke="black" d="M815.24,-934.84C815.24,-923.19 815.24,-877.48 815.24,-854.89"/>
<polygon fill="black" stroke="black" points="818.74,-854.69 815.24,-844.69 811.74,-854.69 818.74,-854.69"/>
</g>
<!-- p33&#45;&gt;p34 -->
<g id="edge41" class="edge">
<title>p33&#45;&gt;p34</title>
<path fill="none" stroke="black" d="M815.24,-837.27C815.24,-827.69 815.24,-796.07 815.24,-778.2"/>
<polygon fill="black" stroke="black" points="818.74,-778.12 815.24,-768.12 811.74,-778.12 818.74,-778.12"/>
<text text-anchor="middle" x="842.74" y="-804.4" font-family="Times,serif" font-size="14.00">breeds_ch</text>
</g>
<!-- p34&#45;&gt;p35 -->
<g id="edge43" class="edge">
<title>p34&#45;&gt;p35</title>
<path fill="none" stroke="black" d="M815.13,-760.96C814.72,-750.51 813.24,-711.07 813.24,-678.6 813.24,-678.6 813.24,-678.6 813.24,-537.6 813.24,-478.74 615.34,-479.03 557.24,-469.6 549.43,-468.33 541.29,-467 533.15,-465.66"/>
<polygon fill="black" stroke="black" points="533.7,-462.2 523.26,-464.02 532.56,-469.1 533.7,-462.2"/>
<text text-anchor="middle" x="850.24" y="-597.4" font-family="Times,serif" font-size="14.00">combined_ch</text>
</g>
<!-- p36 -->
<g id="node37" class="node">
<title>p36</title>
<ellipse fill="none" stroke="black" cx="455.24" cy="-364.6" rx="65.79" ry="18"/>
<text text-anchor="middle" x="455.24" y="-360.9" font-family="Times,serif" font-size="14.00">RELATE:relate</text>
</g>
<!-- p35&#45;&gt;p36 -->
<g id="edge48" class="edge">
<title>p35&#45;&gt;p36</title>
<path fill="none" stroke="black" d="M455.24,-433.4C455.24,-421.76 455.24,-406.15 455.24,-392.84"/>
<polygon fill="black" stroke="black" points="458.74,-392.78 455.24,-382.78 451.74,-392.78 458.74,-392.78"/>
</g>
<!-- p37 -->
<g id="node38" class="node">
<title>p37</title>
<ellipse fill="none" stroke="black" cx="455.24" cy="-277.6" rx="83.69" ry="18"/>
<text text-anchor="middle" x="455.24" y="-273.9" font-family="Times,serif" font-size="14.00">RELATE:relate_mut</text>
</g>
<!-- p36&#45;&gt;p37 -->
<g id="edge49" class="edge">
<title>p36&#45;&gt;p37</title>
<path fill="none" stroke="black" d="M455.24,-346.4C455.24,-334.76 455.24,-319.15 455.24,-305.84"/>
<polygon fill="black" stroke="black" points="458.74,-305.78 455.24,-295.78 451.74,-305.78 458.74,-305.78"/>
</g>
<!-- p38&#45;&gt;p39 -->
<g id="edge53" class="edge">
<title>p38&#45;&gt;p39</title>
<path fill="none" stroke="black" d="M679.31,-434.01C699.52,-420.41 730.29,-401.09 754.98,-386.45"/>
<polygon fill="black" stroke="black" points="756.92,-389.37 763.77,-381.29 753.37,-383.34 756.92,-389.37"/>
</g>
<!-- p38&#45;&gt;p39 -->
<g id="edge54" class="edge">
<title>p38&#45;&gt;p39</title>
<path fill="none" stroke="black" d="M689.23,-434.61C711.99,-421.37 742.53,-402.4 764.89,-387.7"/>
<polygon fill="black" stroke="black" points="766.93,-390.55 773.32,-382.1 763.05,-384.72 766.93,-390.55"/>
</g>
<!-- p39&#45;&gt;p43 -->
<g id="edge57" class="edge">
<title>p39&#45;&gt;p43</title>
<path fill="none" stroke="black" d="M813.94,-347.01C833.56,-333.04 863.81,-313.04 887.59,-298.27"/>
<polygon fill="black" stroke="black" points="889.67,-301.1 896.36,-292.89 886,-295.14 889.67,-301.1"/>
</g>
<!-- p39&#45;&gt;p43 -->
<g id="edge58" class="edge">
<title>p39&#45;&gt;p43</title>
<path fill="none" stroke="black" d="M823.59,-347.81C845.55,-334.39 875.18,-315 896.49,-300.15"/>
<polygon fill="black" stroke="black" points="898.63,-302.93 904.79,-294.3 894.6,-297.21 898.63,-302.93"/>
</g>
<!-- p44 -->
<g id="node45" class="node">
<title>p44</title>
<ellipse fill="none" stroke="black" cx="967.24" cy="-204.6" rx="3.5" ry="3.5"/>
<text text-anchor="middle" x="945.24" y="-211.9" font-family="Times,serif" font-size="14.00">collect</text>
</g>
<!-- p43&#45;&gt;p44 -->
<g id="edge65" class="edge">
<title>p43&#45;&gt;p44</title>
<path fill="none" stroke="black" d="M933.67,-259.77C941.99,-246.35 953.39,-227.94 960.54,-216.42"/>
<polygon fill="black" stroke="black" points="963.55,-218.2 965.84,-207.86 957.6,-214.51 963.55,-218.2"/>
</g>
<!-- p40 -->
<g id="node42" class="node">
<title>p40</title>
<ellipse fill="black" stroke="black" cx="1029.24" cy="-538.6" rx="3.6" ry="3.6"/>
<text text-anchor="middle" x="975.64" y="-546" font-family="Times,serif" font-size="14.00">Channel.fromPath</text>
</g>
<!-- p41 -->
<g id="node43" class="node">
<title>p41</title>
<ellipse fill="none" stroke="black" cx="1029.24" cy="-451.6" rx="3.5" ry="3.5"/>
<text text-anchor="middle" x="1013.24" y="-458.9" font-family="Times,serif" font-size="14.00">map</text>
</g>
<!-- p40&#45;&gt;p41 -->
<g id="edge59" class="edge">
<title>p40&#45;&gt;p41</title>
<path fill="none" stroke="black" d="M1029.24,-534.77C1029.24,-524.09 1029.24,-485.79 1029.24,-465.47"/>
<polygon fill="black" stroke="black" points="1032.74,-465.18 1029.24,-455.18 1025.74,-465.18 1032.74,-465.18"/>
</g>
<!-- p41&#45;&gt;p42 -->
<g id="edge60" class="edge">
<title>p41&#45;&gt;p42</title>
<path fill="none" stroke="black" d="M1026.82,-448.86C1020.15,-443.99 1001.06,-429.7 987.24,-415.6 974.87,-402.98 962.44,-386.75 954.79,-376.26"/>
<polygon fill="black" stroke="black" points="957.58,-374.14 948.92,-368.03 951.88,-378.2 957.58,-374.14"/>
<text text-anchor="middle" x="1014.74" y="-404.4" font-family="Times,serif" font-size="14.00">breeds_ch</text>
</g>
<!-- p45 -->
<g id="node46" class="node">
<title>p45</title>
<ellipse fill="none" stroke="black" cx="1042.24" cy="-131.6" rx="68.79" ry="18"/>
<text text-anchor="middle" x="1042.24" y="-127.9" font-family="Times,serif" font-size="14.00">SDM:filter_sdm</text>
</g>
<!-- p41&#45;&gt;p45 -->
<g id="edge67" class="edge">
<title>p41&#45;&gt;p45</title>
<path fill="none" stroke="black" d="M1030.54,-448.32C1035.94,-438.65 1056.24,-399.97 1056.24,-365.6 1056.24,-365.6 1056.24,-365.6 1056.24,-203.6 1056.24,-188.83 1053.29,-172.65 1050.1,-159.47"/>
<polygon fill="black" stroke="black" points="1053.44,-158.43 1047.53,-149.63 1046.67,-160.19 1053.44,-158.43"/>
<text text-anchor="middle" x="1083.74" y="-273.9" font-family="Times,serif" font-size="14.00">breeds_ch</text>
</g>
<!-- p42&#45;&gt;p43 -->
<g id="edge62" class="edge">
<title>p42&#45;&gt;p43</title>
<path fill="none" stroke="black" d="M946.55,-361.15C944.25,-353.01 936.69,-326.21 930.79,-305.33"/>
<polygon fill="black" stroke="black" points="934.15,-304.34 928.06,-295.67 927.41,-306.24 934.15,-304.34"/>
<text text-anchor="middle" x="973.24" y="-317.4" font-family="Times,serif" font-size="14.00">combined_ch</text>
</g>
<!-- p44&#45;&gt;p45 -->
<g id="edge66" class="edge">
<title>p44&#45;&gt;p45</title>
<path fill="none" stroke="black" d="M969.41,-201.55C976.42,-194.91 999.16,-173.38 1017.39,-156.13"/>
<polygon fill="black" stroke="black" points="1020.01,-158.47 1024.86,-149.05 1015.19,-153.39 1020.01,-158.47"/>
</g>
<!-- p46 -->
<g id="node47" class="node">
<title>p46</title>
<ellipse fill="none" stroke="black" cx="1042.24" cy="-58.6" rx="71.49" ry="18"/>
<text text-anchor="middle" x="1042.24" y="-54.9" font-family="Times,serif" font-size="14.00">SDM:count_sdm</text>
</g>
<!-- p45&#45;&gt;p46 -->
<g id="edge68" class="edge">
<title>p45&#45;&gt;p46</title>
<path fill="none" stroke="black" d="M1042.24,-113.41C1042.24,-105.39 1042.24,-95.65 1042.24,-86.67"/>
<polygon fill="black" stroke="black" points="1045.74,-86.63 1042.24,-76.63 1038.74,-86.63 1045.74,-86.63"/>
</g>
<!-- p48 -->
<g id="node48" class="node">
<title>p48</title>
<ellipse fill="black" stroke="black" cx="1030.24" cy="-1.8" rx="1.8" ry="1.8"/>
</g>
<!-- p46&#45;&gt;p48 -->
<g id="edge69" class="edge">
<title>p46&#45;&gt;p48</title>
<path fill="none" stroke="black" d="M1038.51,-40.56C1036.58,-31.76 1034.29,-21.3 1032.61,-13.61"/>
<polygon fill="black" stroke="black" points="1036.01,-12.78 1030.45,-3.76 1029.17,-14.28 1036.01,-12.78"/>
</g>
<!-- p47 -->
<g id="node49" class="node">
<title>p47</title>
<ellipse fill="black" stroke="black" cx="1055.24" cy="-1.8" rx="1.8" ry="1.8"/>
</g>
<!-- p46&#45;&gt;p47 -->
<g id="edge70" class="edge">
<title>p46&#45;&gt;p47</title>
<path fill="none" stroke="black" d="M1046.28,-40.56C1048.37,-31.76 1050.85,-21.3 1052.68,-13.61"/>
<polygon fill="black" stroke="black" points="1056.11,-14.3 1055.01,-3.76 1049.3,-12.68 1056.11,-14.3"/>
</g>
</g>
</svg>
